<svg width="24" height="24" viewBox="0 0 24 24" fill="none" xmlns="http://www.w3.org/2000/svg">
<path d="M20.9375 23H3.0625C1.92125 23 1 22.0787 1 20.9375V4.4375C1 3.29625 1.92125 2.375 3.0625 2.375H20.9375C22.0787 2.375 23 3.29625 23 4.4375V20.9375C23 22.0787 22.0787 23 20.9375 23ZM3.0625 3.75C2.6775 3.75 2.375 4.0525 2.375 4.4375V20.9375C2.375 21.3225 2.6775 21.625 3.0625 21.625H20.9375C21.3225 21.625 21.625 21.3225 21.625 20.9375V4.4375C21.625 4.0525 21.3225 3.75 20.9375 3.75H3.0625Z" fill="#333333"/>
<path d="M7.1875 6.5C6.8025 6.5 6.5 6.1975 6.5 5.8125V1.6875C6.5 1.3025 6.8025 1 7.1875 1C7.5725 1 7.875 1.3025 7.875 1.6875V5.8125C7.875 6.1975 7.5725 6.5 7.1875 6.5ZM16.8125 6.5C16.4275 6.5 16.125 6.1975 16.125 5.8125V1.6875C16.125 1.3025 16.4275 1 16.8125 1C17.1975 1 17.5 1.3025 17.5 1.6875V5.8125C17.5 6.1975 17.1975 6.5 16.8125 6.5ZM22.3125 9.25H1.6875C1.3025 9.25 1 8.9475 1 8.5625C1 8.1775 1.3025 7.875 1.6875 7.875H22.3125C22.6975 7.875 23 8.1775 23 8.5625C23 8.9475 22.6975 9.25 22.3125 9.25Z" fill="#333333"/>
</svg>
