<svg xmlns="http://www.w3.org/2000/svg" width="24" height="24" viewBox="0 0 24 24" fill="none">
  <circle cx="12" cy="12" r="10" fill="#25D366"/>
  <path d="M9.8 7.5c-.2-.5-.4-.5-.7-.5h-.6c-.2 0-.5.1-.7.3-.3.3-1 1-1 2.5s1 2.9 1.2 3.1c.2.3 2 3.1 4.8 4.2 2.4 1 2.9.8 3.4.7.5-.1 1.7-.7 1.9-1.4.2-.7.2-1.3.1-1.4-.1-.1-.2-.2-.5-.3-.3-.1-1.7-.8-1.9-.9-.2-.1-.4-.1-.6.1-.2.3-.7.9-.9 1.1-.2.2-.3.2-.6.1-.3-.1-1.3-.5-2.4-1.5-.9-.8-1.5-1.8-1.7-2.1-.2-.3 0-.5.1-.7.1-.1.3-.3.4-.5.1-.2.2-.3.3-.5.1-.2 0-.4 0-.5-.1-.1-.6-1.4-.8-1.9z" fill="#fff"/>
</svg>

